PathFileType	4	(X/Y/Z)	E:/Microgravity/Neeraj_13_07_24_t02 _without_weight_pp.trc	
DataRate	CameraRate	NumFrames	NumMarkers	Units	OrigDataRate	OrigDataStartFrame	OrigNumFrames	
120.00	120.00	36	5	m	120.00	3530	7058	
Frame#	Time	RHAND			r_radius_styloid			RWRB			r_humerus_epicondyle			r_acromion			
		X1	Y1	Z1	X2	Y2	Z2	X3	Y3	Z3	X4	Y4	Z4	X5	Y5	Z5	

3530	29.408	0.20230	1.43180	0.20023	0.14596	1.36000	0.26521	0.19464	1.32271	0.18683	-0.00686	1.20457	0.28344	-0.01589	1.52205	0.19582 
3531	29.417	0.20229	1.43185	0.20022	0.14598	1.36005	0.26520	0.19464	1.32275	0.18682	-0.00682	1.20461	0.28346	-0.01587	1.52208	0.19581 
3532	29.425	0.20229	1.43189	0.20021	0.14599	1.36009	0.26518	0.19464	1.32278	0.18681	-0.00679	1.20464	0.28348	-0.01584	1.52210	0.19580 
3533	29.433	0.20228	1.43193	0.20020	0.14600	1.36014	0.26517	0.19465	1.32281	0.18680	-0.00675	1.20468	0.28350	-0.01581	1.52213	0.19579 
3534	29.442	0.20228	1.43196	0.20019	0.14601	1.36018	0.26516	0.19466	1.32284	0.18678	-0.00671	1.20471	0.28352	-0.01577	1.52215	0.19578 
3535	29.450	0.20228	1.43200	0.20017	0.14602	1.36021	0.26514	0.19467	1.32287	0.18677	-0.00667	1.20474	0.28353	-0.01574	1.52218	0.19577 
3536	29.458	0.20228	1.43203	0.20016	0.14604	1.36025	0.26513	0.19469	1.32289	0.18675	-0.00663	1.20477	0.28354	-0.01570	1.52221	0.19576 
3537	29.467	0.20228	1.43205	0.20014	0.14606	1.36027	0.26511	0.19470	1.32290	0.18673	-0.00659	1.20480	0.28355	-0.01567	1.52223	0.19575 
3538	29.475	0.20229	1.43207	0.20013	0.14608	1.36030	0.26510	0.19472	1.32291	0.18671	-0.00655	1.20482	0.28356	-0.01564	1.52224	0.19575 
3539	29.483	0.20230	1.43209	0.20011	0.14610	1.36032	0.26509	0.19474	1.32291	0.18670	-0.00652	1.20484	0.28356	-0.01560	1.52226	0.19575 
3540	29.492	0.20232	1.43209	0.20010	0.14612	1.36033	0.26508	0.19475	1.32293	0.18669	-0.00648	1.20485	0.28357	-0.01556	1.52227	0.19575 
3541	29.500	0.20233	1.43210	0.20008	0.14615	1.36034	0.26508	0.19477	1.32295	0.18668	-0.00646	1.20486	0.28357	-0.01553	1.52229	0.19575 
3542	29.508	0.20235	1.43210	0.20006	0.14617	1.36034	0.26507	0.19480	1.32296	0.18668	-0.00643	1.20487	0.28358	-0.01550	1.52229	0.19574 
3543	29.517	0.20238	1.43209	0.20004	0.14620	1.36034	0.26506	0.19482	1.32297	0.18667	-0.00641	1.20487	0.28358	-0.01547	1.52229	0.19573 
3544	29.525	0.20241	1.43208	0.20002	0.14623	1.36033	0.26505	0.19484	1.32296	0.18667	-0.00638	1.20487	0.28359	-0.01545	1.52229	0.19573 
3545	29.533	0.20244	1.43206	0.20001	0.14626	1.36032	0.26505	0.19487	1.32295	0.18666	-0.00636	1.20487	0.28359	-0.01541	1.52228	0.19574 
3546	29.542	0.20247	1.43204	0.19999	0.14629	1.36030	0.26504	0.19489	1.32293	0.18666	-0.00634	1.20487	0.28359	-0.01538	1.52228	0.19575 
3547	29.550	0.20250	1.43203	0.19997	0.14632	1.36028	0.26504	0.19491	1.32291	0.18665	-0.00632	1.20486	0.28360	-0.01534	1.52228	0.19577 
3548	29.558	0.20254	1.43201	0.19995	0.14635	1.36026	0.26504	0.19493	1.32289	0.18665	-0.00631	1.20486	0.28360	-0.01530	1.52229	0.19579 
3549	29.567	0.20257	1.43199	0.19993	0.14638	1.36023	0.26504	0.19495	1.32287	0.18665	-0.00629	1.20485	0.28360	-0.01526	1.52229	0.19581 
3550	29.575	0.20260	1.43196	0.19992	0.14641	1.36021	0.26504	0.19497	1.32284	0.18664	-0.00629	1.20484	0.28360	-0.01522	1.52229	0.19582 
3551	29.583	0.20263	1.43193	0.19991	0.14643	1.36018	0.26504	0.19498	1.32281	0.18664	-0.00628	1.20482	0.28360	-0.01520	1.52229	0.19583 
3552	29.592	0.20265	1.43191	0.19991	0.14645	1.36015	0.26505	0.19499	1.32279	0.18665	-0.00628	1.20481	0.28360	-0.01517	1.52228	0.19583 
3553	29.600	0.20267	1.43188	0.19990	0.14646	1.36013	0.26506	0.19501	1.32277	0.18665	-0.00629	1.20479	0.28360	-0.01515	1.52226	0.19583 
3554	29.608	0.20269	1.43186	0.19989	0.14647	1.36010	0.26507	0.19502	1.32275	0.18666	-0.00629	1.20477	0.28360	-0.01513	1.52224	0.19583 
3555	29.617	0.20270	1.43184	0.19989	0.14648	1.36008	0.26507	0.19503	1.32273	0.18666	-0.00630	1.20475	0.28361	-0.01511	1.52222	0.19582 
3556	29.625	0.20271	1.43183	0.19988	0.14648	1.36006	0.26508	0.19504	1.32271	0.18667	-0.00630	1.20473	0.28361	-0.01510	1.52220	0.19582 
3557	29.633	0.20271	1.43181	0.19987	0.14648	1.36004	0.26509	0.19504	1.32270	0.18669	-0.00631	1.20471	0.28361	-0.01508	1.52219	0.19583 
3558	29.642	0.20271	1.43179	0.19988	0.14649	1.36002	0.26511	0.19505	1.32268	0.18670	-0.00631	1.20469	0.28361	-0.01506	1.52218	0.19585 
3559	29.650	0.20271	1.43178	0.19989	0.14649	1.36001	0.26512	0.19505	1.32267	0.18671	-0.00631	1.20468	0.28360	-0.01503	1.52218	0.19587 
3560	29.658	0.20271	1.43177	0.19990	0.14649	1.35999	0.26513	0.19505	1.32266	0.18673	-0.00631	1.20466	0.28360	-0.01501	1.52217	0.19588 
3561	29.667	0.20271	1.43176	0.19991	0.14649	1.35998	0.26515	0.19505	1.32264	0.18675	-0.00632	1.20464	0.28359	-0.01500	1.52215	0.19589 
3562	29.675	0.20270	1.43174	0.19992	0.14648	1.35996	0.26516	0.19506	1.32263	0.18677	-0.00632	1.20462	0.28358	-0.01499	1.52213	0.19589 
3563	29.683	0.20270	1.43173	0.19994	0.14648	1.35995	0.26518	0.19507	1.32262	0.18679	-0.00632	1.20459	0.28357	-0.01498	1.52211	0.19589 
3564	29.692	0.20269	1.43171	0.19997	0.14648	1.35993	0.26520	0.19507	1.32260	0.18681	-0.00632	1.20457	0.28357	-0.01497	1.52209	0.19590 
3565	29.700	0.20269	1.43170	0.19999	0.14647	1.35991	0.26522	0.19508	1.32259	0.18684	-0.00632	1.20454	0.28356	-0.01495	1.52208	0.19591 
